<svg width="109" height="108" viewBox="0 0 109 108" fill="none" xmlns="http://www.w3.org/2000/svg">
<g filter="url(#filter0_d_198_173)">
<ellipse cx="54.4839" cy="53" rx="50.4839" ry="50" fill="white"/>
</g>
<path d="M68.375 45.1094H62.6094C63.1406 44.2734 63.4531 43.2812 63.4531 42.2188C63.4531 39.2461 61.0352 36.8281 58.0625 36.8281C56.4453 36.8281 54.9883 37.5469 54 38.6797C53.0117 37.5469 51.5547 36.8281 49.9375 36.8281C46.9648 36.8281 44.5469 39.2461 44.5469 42.2188C44.5469 43.2812 44.8555 44.2734 45.3906 45.1094H39.625C38.9336 45.1094 38.375 45.668 38.375 46.3594V54.1719C38.375 54.3438 38.5156 54.4844 38.6875 54.4844H40.25V67.9219C40.25 68.6133 40.8086 69.1719 41.5 69.1719H66.5C67.1914 69.1719 67.75 68.6133 67.75 67.9219V54.4844H69.3125C69.4844 54.4844 69.625 54.3438 69.625 54.1719V46.3594C69.625 45.668 69.0664 45.1094 68.375 45.1094ZM55.3281 42.2188C55.3281 40.7109 56.5547 39.4844 58.0625 39.4844C59.5703 39.4844 60.7969 40.7109 60.7969 42.2188C60.7969 43.7266 59.5703 44.9531 58.0625 44.9531H55.3281V42.2188ZM49.9375 39.4844C51.4453 39.4844 52.6719 40.7109 52.6719 42.2188V44.9531H49.9375C48.4297 44.9531 47.2031 43.7266 47.2031 42.2188C47.2031 40.7109 48.4297 39.4844 49.9375 39.4844ZM41.0312 51.8281V47.7656H52.6719V51.8281H41.0312ZM42.9062 54.4844H52.6719V66.5156H42.9062V54.4844ZM65.0938 66.5156H55.3281V54.4844H65.0938V66.5156ZM66.9688 51.8281H55.3281V47.7656H66.9688V51.8281Z" fill="#FED500"/>
<defs>
<filter id="filter0_d_198_173" x="0" y="0" width="108.968" height="108" filterUnits="userSpaceOnUse" color-interpolation-filters="sRGB">
<feFlood flood-opacity="0" result="BackgroundImageFix"/>
<feColorMatrix in="SourceAlpha" type="matrix" values="0 0 0 0 0 0 0 0 0 0 0 0 0 0 0 0 0 0 127 0" result="hardAlpha"/>
<feOffset dy="1"/>
<feGaussianBlur stdDeviation="2"/>
<feComposite in2="hardAlpha" operator="out"/>
<feColorMatrix type="matrix" values="0 0 0 0 0 0 0 0 0 0 0 0 0 0 0 0 0 0 0.25 0"/>
<feBlend mode="normal" in2="BackgroundImageFix" result="effect1_dropShadow_198_173"/>
<feBlend mode="normal" in="SourceGraphic" in2="effect1_dropShadow_198_173" result="shape"/>
</filter>
</defs>
</svg>
