<svg width="37" height="38" viewBox="0 0 37 38" fill="none" xmlns="http://www.w3.org/2000/svg">
<path d="M18.3371 9.90967C17.4242 9.90967 16.5317 10.1804 15.7726 10.6876C15.0136 11.1948 14.4219 11.9157 14.0726 12.7591C13.7232 13.6026 13.6318 14.5307 13.8099 15.4261C13.988 16.3215 14.4276 17.144 15.0732 17.7895C15.7187 18.435 16.5412 18.8747 17.4366 19.0528C18.332 19.2309 19.2601 19.1395 20.1035 18.7901C20.947 18.4407 21.6679 17.8491 22.1751 17.09C22.6823 16.3309 22.953 15.4385 22.953 14.5256C22.9516 13.3018 22.4648 12.1285 21.5995 11.2632C20.7341 10.3978 19.5609 9.91106 18.3371 9.90967ZM18.3371 16.8335C17.8806 16.8335 17.4344 16.6982 17.0549 16.4446C16.6753 16.191 16.3795 15.8305 16.2048 15.4088C16.0301 14.9871 15.9844 14.523 16.0735 14.0753C16.1625 13.6276 16.3824 13.2164 16.7051 12.8936C17.0279 12.5708 17.4391 12.351 17.8868 12.262C18.3345 12.1729 18.7986 12.2186 19.2203 12.3933C19.642 12.568 20.0025 12.8638 20.2561 13.2433C20.5097 13.6229 20.645 14.0691 20.645 14.5256C20.6443 15.1375 20.4009 15.7241 19.9683 16.1567C19.5356 16.5894 18.949 16.8328 18.3371 16.8335Z" fill="white"/>
<path d="M27.207 5.64872C25.0139 3.4562 22.0865 2.15376 18.9895 1.99276C15.8926 1.83176 12.8459 2.82362 10.4373 4.77692C8.02867 6.73021 6.42898 9.50646 5.94694 12.5699C5.4649 15.6332 6.13469 18.7666 7.82704 21.3652L16.5473 34.7522C16.7413 35.0501 17.0066 35.2949 17.3192 35.4643C17.6318 35.6337 17.9817 35.7224 18.3372 35.7224C18.6927 35.7224 19.0426 35.6337 19.3552 35.4643C19.6677 35.2949 19.933 35.0501 20.1271 34.7522L28.8476 21.3652C30.4179 18.9546 31.1119 16.0775 30.8132 13.2162C30.5145 10.3548 29.2413 7.68302 27.207 5.64872ZM26.9138 20.1054L18.3372 33.2715L9.76052 20.1054C7.13523 16.0752 7.6983 10.6819 11.0993 7.28066C12.0498 6.33015 13.1782 5.57617 14.4201 5.06175C15.662 4.54734 16.993 4.28258 18.3372 4.28258C19.6814 4.28258 21.0125 4.54734 22.2543 5.06175C23.4962 5.57617 24.6246 6.33015 25.5751 7.28066C28.9761 10.6819 29.5391 16.0752 26.9138 20.1054Z" fill="white"/>
</svg>
