<svg width="70" height="70" viewBox="0 0 70 70" fill="none" xmlns="http://www.w3.org/2000/svg">
<path fill-rule="evenodd" clip-rule="evenodd" d="M34.9998 0.166504C15.7623 0.166504 0.166504 15.7623 0.166504 34.9998C0.166504 54.2373 15.7623 69.8332 34.9998 69.8332C54.2373 69.8332 69.8332 54.2373 69.8332 34.9998C69.8332 15.7623 54.2373 0.166504 34.9998 0.166504Z" fill="#018BE7"/>
<path fill-rule="evenodd" clip-rule="evenodd" d="M28.011 24.5722C27.4342 23.9749 27.115 23.175 27.1222 22.3447C27.1294 21.5144 27.4624 20.7202 28.0496 20.1331C28.6367 19.5459 29.4309 19.2129 30.2612 19.2057C31.0915 19.1985 31.8914 19.5177 32.4887 20.0945L45.1553 32.7612C45.749 33.355 46.0825 34.1603 46.0825 35C46.0825 35.8397 45.749 36.645 45.1553 37.2388L32.4887 49.9055C31.8914 50.4823 31.0915 50.8015 30.2612 50.7943C29.4309 50.7871 28.6367 50.454 28.0496 49.8669C27.4624 49.2798 27.1294 48.4855 27.1222 47.6553C27.115 46.825 27.4342 46.0251 28.011 45.4278L38.4388 35L28.011 24.5722Z" fill="white"/>
</svg>
