<svg width="109" height="108" viewBox="0 0 109 108" fill="none" xmlns="http://www.w3.org/2000/svg">
<g filter="url(#filter0_d_198_159)">
<ellipse cx="54.4839" cy="53" rx="50.4839" ry="50" fill="white"/>
</g>
<path d="M61.8653 65.92L60.7986 57.38C60.6475 56.1704 60.0596 55.0576 59.1456 54.251C58.2316 53.4444 57.0543 52.9995 55.8353 53H52.162C50.9435 53.0003 49.7671 53.4456 48.8538 54.2521C47.9404 55.0587 47.3531 56.1709 47.202 57.38L46.1336 65.92C46.075 66.3892 46.1169 66.8655 46.2564 67.3172C46.396 67.769 46.6301 68.1859 46.9431 68.5403C47.2562 68.8946 47.6411 69.1783 48.0722 69.3725C48.5033 69.5667 48.9708 69.667 49.4436 69.6667H58.557C59.0297 69.6668 59.497 69.5663 59.9279 69.372C60.3588 69.1777 60.7435 68.894 61.0563 68.5397C61.3692 68.1853 61.6032 67.7685 61.7426 67.3169C61.8821 66.8652 61.9239 66.389 61.8653 65.92V65.92Z" stroke="#FED500" stroke-width="2" stroke-linecap="round" stroke-linejoin="round"/>
<path d="M54 46.3334C56.7614 46.3334 59 44.0948 59 41.3334C59 38.572 56.7614 36.3334 54 36.3334C51.2386 36.3334 49 38.572 49 41.3334C49 44.0948 51.2386 46.3334 54 46.3334Z" stroke="#FED500" stroke-width="2"/>
<path d="M40.6668 51.3334C42.5078 51.3334 44.0002 49.841 44.0002 48.0001C44.0002 46.1591 42.5078 44.6667 40.6668 44.6667C38.8259 44.6667 37.3335 46.1591 37.3335 48.0001C37.3335 49.841 38.8259 51.3334 40.6668 51.3334Z" stroke="#FED500" stroke-width="2"/>
<path d="M67.3333 51.3334C69.1743 51.3334 70.6667 49.841 70.6667 48.0001C70.6667 46.1591 69.1743 44.6667 67.3333 44.6667C65.4924 44.6667 64 46.1591 64 48.0001C64 49.841 65.4924 51.3334 67.3333 51.3334Z" stroke="#FED500" stroke-width="2"/>
<path d="M67.3335 56.3334H67.8435C68.6325 56.3333 69.3961 56.6131 69.9982 57.1231C70.6003 57.633 71.002 58.3401 71.1318 59.1184L71.6868 62.4517C71.7665 62.9293 71.7411 63.4185 71.6125 63.8853C71.4839 64.352 71.2552 64.7852 70.9423 65.1546C70.6293 65.5241 70.2396 65.8209 69.8003 66.0245C69.361 66.228 68.8826 66.3334 68.3985 66.3334H62.3335M40.6668 56.3334H40.1568C39.3677 56.3333 38.6042 56.6131 38.0021 57.1231C37.4 57.633 36.9983 58.3401 36.8685 59.1184L36.3135 62.4517C36.2338 62.9293 36.2592 63.4185 36.3878 63.8853C36.5163 64.352 36.7451 64.7852 37.058 65.1546C37.371 65.5241 37.7607 65.8209 38.2 66.0245C38.6393 66.228 39.1176 66.3334 39.6018 66.3334H45.6668L40.6668 56.3334Z" stroke="#FED500" stroke-width="2" stroke-linecap="round" stroke-linejoin="round"/>
<defs>
<filter id="filter0_d_198_159" x="0" y="0" width="108.968" height="108" filterUnits="userSpaceOnUse" color-interpolation-filters="sRGB">
<feFlood flood-opacity="0" result="BackgroundImageFix"/>
<feColorMatrix in="SourceAlpha" type="matrix" values="0 0 0 0 0 0 0 0 0 0 0 0 0 0 0 0 0 0 127 0" result="hardAlpha"/>
<feOffset dy="1"/>
<feGaussianBlur stdDeviation="2"/>
<feComposite in2="hardAlpha" operator="out"/>
<feColorMatrix type="matrix" values="0 0 0 0 0 0 0 0 0 0 0 0 0 0 0 0 0 0 0.25 0"/>
<feBlend mode="normal" in2="BackgroundImageFix" result="effect1_dropShadow_198_159"/>
<feBlend mode="normal" in="SourceGraphic" in2="effect1_dropShadow_198_159" result="shape"/>
</filter>
</defs>
</svg>
